HIERARCHY
ROOT ui
{
	 OFFSET 0 0 0
	 CHANNELS 3 XPosition YPosition Z Position
	 EndSite
	 {
	 OFFSET 0 -1 0
	 }
}
ROOT li
{
	 OFFSET 0 0 0
	 CHANNELS 3 XPosition YPosition Z Position
	 EndSite
	 {
	 OFFSET 0 -1 0
	 }
}
ROOT ul
{
	 OFFSET 0 0 0
	 CHANNELS 3 XPosition YPosition Z Position
	 EndSite
	 {
	 OFFSET 0 -1 0
	 }
}
ROOT ll
{
	 OFFSET 0 0 0
	 CHANNELS 3 XPosition YPosition Z Position
	 EndSite
	 {
	 OFFSET 0 -1 0
	 }
}
ROOT tt
{
	 OFFSET 0 0 0
	 CHANNELS 3 XPosition YPosition Z Position
	 EndSite
	 {
	 OFFSET 0 -1 0
	 }
}
ROOT tb
{
	 OFFSET 0 0 0
	 CHANNELS 3 XPosition YPosition Z Position
	 EndSite
	 {
	 OFFSET 0 -1 0
	 }
}
ROOT td
{
	 OFFSET 0 0 0
	 CHANNELS 3 XPosition YPosition Z Position
	 EndSite
	 {
	 OFFSET 0 -1 0
	 }
}
ROOT v
{
	 OFFSET 0 0 0
	 CHANNELS 3 XPosition YPosition Z Position
	 EndSite
	 {
	 OFFSET 0 -1 0
	 }
}
ROOT bn
{
	 OFFSET 0 0 0
	 CHANNELS 3 XPosition YPosition Z Position
	 EndSite
	 {
	 OFFSET 0 -1 0
	 }
}
MOTION
Frames: 19
Frame Time: 0.002
0.0015027159452438354	9.954860210418701E-4	0		0.49712701416015626	-2.278109130859375	0		-1.129223388671875	0.02606306838989258	0		-0.68886181640625	-2.265965576171875	0		1.5055567626953126	-0.31841253662109376	0		3.2277626953125	0.2390897979736328	0		4.2968642578125	0.4969369506835937	0		5.60794482421875	0.15464717102050782	0		-0.17977317810058593	5.933662109375	0		
0.04453963851928711	0.0036255929470062256	0		0.49827655029296875	-2.273642578125	0		-1.120044677734375	0.03631173324584961	0		-0.7206286010742188	-2.256901611328125	0		1.4646605224609375	-0.3120907287597656	0		3.215177978515625	0.2109176483154297	0		4.29306640625	0.5096150207519531	0		5.60875	0.16788832092285155	0		-0.19721920776367188	5.92345654296875	0		
0.022698299407958984	0.010543707847595216	0		0.4964217834472656	-2.272094970703125	0		-1.0860533447265626	0.03409816741943359	0		-0.6906260986328125	-2.263021484375	0		1.5044503173828125	-0.3253194885253906	0		3.232457275390625	0.22419828796386718	0		4.2859501953125	0.5033804321289063	0		5.6014287109375	0.14176512145996092	0		-0.200427734375	5.92299755859375	0		
0.043568206787109376	-0.002343449115753174	0		0.5144196166992188	-2.28290576171875	0		-1.12999755859375	0.031427120208740236	0		-0.7283659057617188	-2.259794677734375	0		1.4966878662109375	-0.31958999633789065	0		3.21942236328125	0.2170942840576172	0		4.273904296875	0.496270751953125	0		5.60160693359375	0.1534079895019531	0		-0.21776075744628906	5.91183837890625	0		
0.010895980834960937	0.002844006061553955	0		0.4857959899902344	-2.27977734375	0		-1.0998570556640626	0.026351343154907225	0		-0.7079996337890625	-2.25766259765625	0		1.486791259765625	-0.3267894287109375	0		3.211775634765625	0.2239199981689453	0		4.285107421875	0.49574365234375	0		5.59739697265625	0.14108770751953126	0		-0.22076371765136718	5.91143603515625	0		
0.03325594329833984	0.0020012290477752688	0		0.48528558349609374	-2.278157958984375	0		-1.1605791015625	0.02207094955444336	0		-0.733602783203125	-2.260604736328125	0		1.4961854248046875	-0.3263251953125	0		3.20872607421875	0.20268572998046874	0		4.2735712890625	0.5016924133300781	0		5.587171875	0.16717317199707032	0		-0.20941358947753907	5.921794921875	0		
0.02087363052368164	0.00687076187133789	0		0.5144785766601563	-2.300076904296875	0		-1.1238555908203125	0.031950210571289064	0		-0.7319231567382812	-2.257033447265625	0		1.50575341796875	-0.32482510375976564	0		3.224736083984375	0.2281291046142578	0		4.28406982421875	0.5012505493164062	0		5.5989560546875	0.16633213806152344	0		-0.19792335510253906	5.93119140625	0		
0.014499863624572755	0.003663867950439453	0		0.48375051879882813	-2.2737900390625	0		-1.1361329345703124	0.033816761016845706	0		-0.7361967163085937	-2.259305908203125	0		1.4896051025390624	-0.3167882385253906	0		3.184052734375	0.20969468688964843	0		4.2597587890625	0.5025173645019532	0		5.58794140625	0.15450668334960938	0		-0.21464279174804687	5.9211708984375	0		
0.007448219776153565	0.008513415336608886	0		0.5274415283203125	-2.286901123046875	0		-1.109441650390625	0.024975696563720704	0		-0.7033312377929688	-2.26324951171875	0		1.4843912353515625	-0.3209244689941406	0		3.20702685546875	0.21607696533203125	0		4.2664755859375	0.49622244262695314	0		5.59058203125	0.14037287902832032	0		-0.2312046356201172	5.91018798828125	0		
-0.021737884521484375	-0.0021740779876708986	0		0.4746424255371094	-2.281114013671875	0		-1.1894462890625	0.024227901458740233	0		-0.7422103881835938	-2.261770751953125	0		1.4824219970703125	-0.3210831298828125	0		3.20990478515625	0.20888053894042968	0		4.2594609375	0.49522857666015624	0		5.58204345703125	0.14065968322753905	0		-0.21917103576660157	5.9207021484375	0		
0.0024272410869598388	-0.003843189001083374	0		0.5003998107910156	-2.30780126953125	0		-1.109158203125	0.028448604583740236	0		-0.7439506225585938	-2.26196484375	0		1.4913892822265624	-0.3334159240722656	0		3.207489501953125	0.2298255615234375	0		4.27574609375	0.5008234558105469	0		5.586666015625	0.1663419647216797	0		-0.20697845458984376	5.9302548828125	0		
0.002015608072280884	0.007999885082244872	0		0.4764620056152344	-2.274488525390625	0		-1.1807108154296875	0.03361785125732422	0		-0.7414491577148438	-2.25819970703125	0		1.492833984375	-0.32956570434570315	0		3.191442626953125	0.2090559844970703	0		4.2740908203125	0.5007932434082031	0		5.5919169921875	0.16609013366699218	0		-0.22298298645019532	5.92038232421875	0		
0.027369373321533202	-0.0016164920330047608	0		0.5248935546875	-2.28353125	0		-1.1122701416015626	0.028147035598754883	0		-0.7428562622070313	-2.258322509765625	0		1.4806048583984375	-0.31741937255859376	0		3.2102314453125	0.22265689086914062	0		4.26849365234375	0.49486651611328125	0		5.5879111328125	0.15246961975097656	0		-0.23882273864746092	5.90954296875	0		
-0.0038272740840911866	0.0038834159374237062	0		0.47072100830078123	-2.279579833984375	0		-1.1505615234375	0.02875232124328613	0		-0.746134033203125	-2.260375	0		1.47623974609375	-0.3213956298828125	0		3.203662109375	0.20876457214355468	0		4.262318359375	0.5019795227050782	0		5.58475390625	0.14057856750488282	0		-0.2402705841064453	5.90946533203125	0		
0.016983118057250977	4.2081299424171447E-4	0		0.5185034790039063	-2.287544677734375	0		-1.1228292236328126	0.02113042640686035	0		-0.7472097778320312	-2.260436279296875	0		1.472062255859375	-0.32434768676757814	0		3.1976630859375	0.2158890380859375	0		4.26193017578125	0.489001708984375	0		5.57978173828125	0.1547589416503906	0		-0.24153663635253905	5.90941552734375	0		
-0.030048666000366212	-0.0027227199077606203	0		0.4962493896484375	-2.305150634765625	0		-1.1778218994140626	0.020114555358886718	0		-0.7481259155273438	-2.260471923828125	0		1.4741617431640626	-0.32139373779296876	0		3.200389404296875	0.19986398315429688	0		4.26005078125	0.49407565307617185	0		5.588462890625	0.16660623168945313	0		-0.22745738220214845	5.918103515625	0		
0.027231287002563477	0.0011750470399856567	0		0.4970019226074219	-2.27816357421875	0		-1.1316734619140625	0.01720057487487793	0		-0.740717529296875	-2.251638427734375	0		1.450310302734375	-0.3239263916015625	0		3.20409326171875	0.22684597778320312	0		4.25537060546875	0.50122021484375	0		5.5908388671875	0.17876780700683595	0		-0.22837570190429687	5.9181005859375	0		
0.004660923957824707	0.005611549854278564	0		0.4704528503417969	-2.274642822265625	0		-1.1500360107421874	0.032539031982421876	0		-0.7084295654296875	-2.2572578125	0		1.4757939453125	-0.31737704467773437	0		3.1851005859375	0.20926565551757811	0		4.27759375	0.49486541748046875	0		5.58446875	0.1532835693359375	0		-0.24429685974121093	5.90940234375	0		
0.06893731689453125	-0.00658633279800415	0		0.49079183959960937	-2.284998779296875	0		-1.1216966552734375	0.02400544548034668	0		-0.7458906860351563	-2.256533935546875	0		1.4752957763671875	-0.31732080078125	0		3.194725341796875	0.21615768432617188	0		4.25410595703125	0.49639068603515624	0		5.57474658203125	0.14180856323242189	0		-0.24489254760742188	5.909431640625	0		
